<svg xmlns="http://www.w3.org/2000/svg" viewBox="0 0 58.52 59.82"><defs><style>.cls-1{fill:none;}.cls-2{fill:#fff;}.cls-3{fill:#006241;}</style></defs><title>Asset 167</title><g id="Layer_2" data-name="Layer 2"><g id="Layer_2-2" data-name="Layer 2"><path class="cls-1" d="M5.69,35.76,5.2,32.68h0L5,35.85,4.23,36l-1.3-2.93h0l.57,3.09-.89.16-.81-4.47,1.3-.24,1.22,2.76h0l.16-3,1.38-.24.81,4.47Z"/><path class="cls-1" d="M9.51,35l-.33-.81-1.06.24v.81l-1,.16.33-4.63,1.3-.24,1.87,4.31ZM8.21,31.7h0l-.08,2,.73-.16Z"/><path class="cls-1" d="M12.19,31a.63.63,0,0,0-.65-.16c-.24,0-.41.24-.33.57s.24.33.65.49,1.06.33,1.22,1.14a1.39,1.39,0,0,1-1.14,1.71,2.35,2.35,0,0,1-1.38-.24l.41-.81a1.37,1.37,0,0,0,.81.24.43.43,0,0,0,.33-.57c-.08-.33-.33-.41-.73-.49a1.38,1.38,0,0,1-1.14-1.14,1.33,1.33,0,0,1,1.14-1.63,1.53,1.53,0,0,1,1.22.24Z"/><path class="cls-1" d="M14.55,30.4l.65,3.66-1,.16-.65-3.66-.81.16-.16-.81,2.6-.49.16.89Z"/><path class="cls-1" d="M16.42,33.81l-.81-4.47,2.19-.41.16.89-1.22.24.16.89L18,30.81l.16.81-1.14.16.16,1,1.3-.24.16.89Z"/><path class="cls-1" d="M21.13,33l-.89-1.71-.33.08.33,1.79-1,.16-.81-4.47,1.46-.24a1.26,1.26,0,0,1,1.63,1.14A1.23,1.23,0,0,1,21.13,31l1.14,1.87Zm-1.22-3.5-.33.08.16,1.14.33-.08a.48.48,0,0,0,.41-.65C20.48,29.51,20.16,29.42,19.91,29.51Z"/><path class="cls-1" d="M24,32.51,23.17,28l1.06-.16.65,3.58,1.22-.24.16,1Z"/><path class="cls-1" d="M28,31.94c-1.06.16-1.87-.65-2.11-2s.24-2.44,1.3-2.68,1.87.65,2.11,2S29,31.7,28,31.94Zm-.65-3.74c-.49.08-.57.73-.41,1.46s.49,1.3.89,1.22.57-.73.41-1.46S27.8,28.12,27.31,28.2Z"/><path class="cls-1" d="M31.94,31.21c-1.14.16-2-.65-2.19-2S30,26.66,31,26.5a1.86,1.86,0,0,1,1.38.33l-.41.81a.92.92,0,0,0-.65-.24c-.57.08-.73.81-.57,1.54s.49,1.38,1.06,1.22a.42.42,0,0,0,.33-.16L32,29.18l-.49.08-.16-.89,1.38-.24.41,2.36A1.74,1.74,0,0,1,31.94,31.21Z"/><path class="cls-1" d="M35.44,30.64c-1.06.16-1.87-.65-2.11-2s.24-2.44,1.3-2.68,1.87.65,2.11,2S36.5,30.4,35.44,30.64Zm-.65-3.74c-.49.08-.57.73-.41,1.46s.49,1.3.89,1.22.57-.73.41-1.46S35.19,26.82,34.79,26.9Z"/><path class="cls-1" d="M40.23,29.67l-1.14.16L39.75,26l-1.54.24L38,25.36l2.6-.49.16.73Z"/><path class="cls-1" d="M42.51,29.51h-.57l.33-5.12h.57Z"/><path class="cls-1" d="M45.76,26.74l-.65,1.14,1.46-.24.16.89L44.05,29l-.16-1,1.06-1.79a1.82,1.82,0,0,0,.24-.81C45.11,25.2,45,25,44.7,25s-.41.24-.33.65l-1,.08a1.41,1.41,0,0,1,1.22-1.63,1.19,1.19,0,0,1,1.54,1.06A2,2,0,0,1,45.76,26.74Z"/><path class="cls-1" d="M48.77,28.2c-1.22.24-1.71-1.06-1.87-2.11s-.16-2.36,1.06-2.6,1.71,1.06,1.87,2.11S50,28,48.77,28.2Zm-.65-3.74c-.41.08-.33,1-.24,1.54s.33,1.46.73,1.38.33-.89.24-1.54S48.52,24.38,48.12,24.47Z"/><path class="cls-1" d="M51.78,27.64l-.57-3.33-.57.65-.57-.73,1.06-1.14.89-.16.81,4.47Z"/><path class="cls-1" d="M56.25,25.93l.16.89-.89.16-.16-.89-1.63.33-.16-.89.81-2.93,1.22-.24L56.08,25l.49-.08.16.81Zm-1.3-2.44h0l-.49,1.87.81-.16Z"/><circle class="cls-2" cx="29.26" cy="29.26" r="29.26"/><path class="cls-3" d="M32.19,12.68a14.31,14.31,0,0,0-2.93-.24,25.67,25.67,0,0,0-2.93.24c-.16,0-.16-.08-.08-.16s3-2.28,3-2.28,2.93,2.19,3,2.28S32.35,12.68,32.19,12.68Zm-5,14.47s-.16.08-.16.16c.65.49,1.06,1.54,2.36,1.54S31,27.8,31.7,27.31c-.08-.16-.16-.16-.16-.16a11.88,11.88,0,0,1-2.11.16A7.28,7.28,0,0,1,27.15,27.15Zm2.11-1.79c-.33,0-.41-.16-.65-.16a1.44,1.44,0,0,0-.81.33.3.3,0,0,0,.08.24c.49.08.73.41,1.38.41s.81-.33,1.38-.41a.3.3,0,0,0,.08-.24,1.24,1.24,0,0,0-.81-.33C29.67,25.2,29.59,25.36,29.26,25.36Zm29.18,5.53A18.49,18.49,0,0,1,58.28,33c-3.33.57-4.47-2.44-7.88-2.28l.49,2.19c2.76,0,3.9,2.6,7.07,2.19a20,20,0,0,1-.57,2.36c-2.44.24-3.33-2.19-6.18-2.11v1.87c2.44,0,3.25,2.19,5.53,2.11-.33.81-.65,1.54-1,2.28-1.63-.08-2.28-2.19-4.8-2a11.51,11.51,0,0,1-.33,1.63c2.19-.16,2.68,1.87,4.23,2a18.37,18.37,0,0,1-1.3,2.11c-.89-.49-1.71-2-3.5-2.11l.49-1.71a7.81,7.81,0,0,1-4.88-2c.49-2.76-3.82-5.61-3.82-7.64,0-2.19,1.14-3.41,1.14-6.42a9.32,9.32,0,0,0-2.68-6.26,8.61,8.61,0,0,0-1-.81A10.55,10.55,0,0,1,41.94,25c0,2.76-1.3,4.31-1.3,6.91s3.82,4.8,3.82,7.48c0,1.06-.33,2.11-1.46,4.06a8.44,8.44,0,0,0,5.36,2.6.86.86,0,0,0,.89-.49c.16-.33.24-.65.41-1,1.54.08,2.28,1.46,3.09,2-.49.65-1,1.22-1.46,1.79a5.57,5.57,0,0,0-2.44-2,5.18,5.18,0,0,1-.65,1.14,4.34,4.34,0,0,1,2.11,1.87c-.57.57-1.14,1.14-1.71,1.63A6.47,6.47,0,0,0,47,49.34l-.73,1a5.27,5.27,0,0,1,1.38,1.63,20.13,20.13,0,0,1-2.11,1.54c-.33-3-4.39-5-3.33-8.45a4.75,4.75,0,0,0-.81,2.28c0,2.52,2.68,4.47,2.84,7a17.2,17.2,0,0,1-1.71.89c-.08-2.76-2.93-5.69-2.93-8,0-2.52,3.25-5,3.25-8s-3.74-5-3.74-7.56,1.63-4.06,1.63-7.4a9,9,0,0,0-2.93-6.5l-1-.73a9.47,9.47,0,0,1,2.68,6.67c0,3.09-1.87,4.88-1.87,7.88s3.74,4.71,3.74,7.64S38,44.54,38,47.47c0,2.68,3,5.28,3.09,8.45a21.17,21.17,0,0,1-2,.81c.41-3.17-3-6.5-3-9.1,0-2.84,3.58-5.28,3.58-8.37s-3.66-4.47-3.66-7.64,2.19-4.88,2.19-8.37a8.39,8.39,0,0,0-3.33-6.67c-.08,0-.08-.08-.16-.08-.16-.16-.33,0-.24.16a9,9,0,0,1,2.11,6.1c0,3.17-2.6,5.77-2.6,8.86,0,3.66,3.41,4.71,3.41,7.64s-3.66,5.36-3.66,8.53c0,2.93,3.5,6.18,2.93,9.59l-2.11.49c.65-4.23-2.76-7.23-2.76-10,0-3,3.82-5.69,3.82-8.62,0-2.76-2.76-3.66-3.09-6.5a.64.64,0,0,0-.81-.57,10.64,10.64,0,0,1-2.36.49,9.67,9.67,0,0,1-2.36-.49.73.73,0,0,0-.81.57C25.77,35.6,23,36.5,23,39.26c0,2.93,3.82,5.61,3.82,8.62,0,2.76-3.41,5.77-2.76,10-.73-.16-1.46-.33-2.11-.49-.57-3.41,2.93-6.67,2.93-9.59,0-3.17-3.66-5.53-3.66-8.53s3.41-4.06,3.41-7.64c0-3.09-2.6-5.69-2.6-8.86a9.11,9.11,0,0,1,2.11-6.1c.16-.16,0-.33-.24-.16-.08,0-.08.08-.16.08a8.63,8.63,0,0,0-3.33,6.67c0,3.5,2.19,5.2,2.19,8.37s-3.66,4.55-3.66,7.64,3.58,5.53,3.58,8.37c0,2.6-3.41,5.93-3,9.1a21.17,21.17,0,0,1-2-.81c.08-3.17,3.09-5.85,3.09-8.45,0-2.93-3.41-5.36-3.41-8.21s3.74-4.55,3.74-7.64S19,26.82,19,23.73a9.62,9.62,0,0,1,2.68-6.67,2.8,2.8,0,0,0-1,.73,8.86,8.86,0,0,0-2.93,6.5c0,3.33,1.63,4.8,1.63,7.4s-3.74,4.63-3.74,7.56,3.25,5.45,3.25,8c0,2.28-2.84,5.2-2.93,8-.57-.33-1.14-.57-1.71-.89.24-2.52,2.84-4.47,2.84-7A4,4,0,0,0,16.34,45c1.06,3.41-2.93,5.53-3.33,8.45-.73-.49-1.46-1.06-2.11-1.54a5.27,5.27,0,0,1,1.38-1.63l-.73-1A6.47,6.47,0,0,0,9.92,51c-.57-.49-1.14-1.06-1.71-1.63a4.34,4.34,0,0,1,2.11-1.87c-.24-.41-.41-.73-.65-1.14a5.57,5.57,0,0,0-2.44,2c-.49-.57-1-1.22-1.46-1.79.81-.57,1.54-2,3.09-2,.16.33.24.65.41,1a.86.86,0,0,0,.89.49,8.44,8.44,0,0,0,5.36-2.6c-1.14-2-1.46-3-1.46-4.06,0-2.68,3.82-4.88,3.82-7.48s-1.3-4.06-1.3-6.91a10.74,10.74,0,0,1,2.6-6.58,4.72,4.72,0,0,0-1,.81,9.32,9.32,0,0,0-2.68,6.26c0,3,1.14,4.23,1.14,6.42,0,2-4.31,4.88-3.82,7.64a7.22,7.22,0,0,1-4.88,2l.49,1.71c-1.79.08-2.6,1.63-3.5,2.11-.49-.73-.89-1.38-1.3-2.11,1.54-.16,2-2.19,4.23-2-.08-.57-.24-1.06-.33-1.63-2.52-.16-3.09,2-4.8,2-.33-.73-.65-1.54-1-2.28,2.28.08,3.09-2.11,5.53-2.11V35.36c-2.84-.08-3.74,2.36-6.18,2.11-.24-.81-.41-1.54-.57-2.36,3.09.41,4.23-2.19,7.07-2.19l.49-2.19C4.71,30.56,3.58,33.57.24,33a17.16,17.16,0,0,1-.16-2.11c3.82.41,5.28-2.76,8.78-2.36.33-.81.73-1.63,1.14-2.44C5.61,25.36,4.15,29,0,28.45a29.27,29.27,0,0,1,58.52,0c-4.06.57-5.61-3.09-10-2.36.41.81.81,1.63,1.14,2.44C53.16,28.12,54.62,31.29,58.44,30.89ZM16.66,18.61a7.72,7.72,0,0,0-7,.73,7.5,7.5,0,0,0-3.09-5c-.24-.16-.49,0-.41.24C6.5,18.94,4,22.76.81,26.09c3.25,1,6-3.17,10.24-1.71A21.06,21.06,0,0,1,16.66,18.61ZM29.26,16a5.82,5.82,0,0,0-5.61,3.5c-.08.16,0,.24.16.16a3.64,3.64,0,0,1,1.63-.33,3.32,3.32,0,0,1,2.68,1.14,5.31,5.31,0,0,1,0,2.76c-.49-.08-.65-.49-1.06-.49s-.81.33-1.54.33-.81-.33-1.3-.33-.73.57-.73,1.3c0,3,2.76,7.15,5.77,7.15S35,27.07,35,24.06c0-.65-.16-1.3-.73-1.3a1.77,1.77,0,0,1-1.3.41c-.73,0-1-.33-1.38-.33-.57,0-.49,1.14-1.14,1.22a5.69,5.69,0,0,1-.08-3.5,3.32,3.32,0,0,1,2.68-1.14,3.64,3.64,0,0,1,1.63.33c.16.08.24,0,.16-.16A5.65,5.65,0,0,0,29.26,16Zm4.31,4.31a2.39,2.39,0,0,0-1.87.73.52.52,0,0,0,0,.49c1.22-.41,2.19-.41,2.76.16a1,1,0,0,0,.33-.73C34.79,20.56,34.38,20.32,33.57,20.32ZM24.06,21.7c.57-.57,1.79-.57,3-.08.08-.65-1.06-1.3-2.19-1.3-.81,0-1.22.24-1.22.65A1.66,1.66,0,0,0,24.06,21.7ZM42.84,11.46a10,10,0,0,0-5.53,2.11,21.9,21.9,0,0,1,2.52-5,10.62,10.62,0,0,0-6.67,3l-1.3-3.41,2.93-2.52-3.9-.24L29.26,1.79,27.72,5.36l-3.9.24,2.93,2.52-1.3,3.41a11,11,0,0,0-6.67-3,20.32,20.32,0,0,1,2.52,5,9.79,9.79,0,0,0-5.53-2.11A23.72,23.72,0,0,1,19,16.66a.33.33,0,0,0,.49.16,22,22,0,0,1,19.51,0,.36.36,0,0,0,.49-.16A29.67,29.67,0,0,1,42.84,11.46Zm4.63,12.92c4.23-1.46,7,2.68,10.24,1.71-3.17-3.33-5.69-7.15-5.36-11.54,0-.24-.24-.41-.41-.24a7.5,7.5,0,0,0-3.09,5,7.46,7.46,0,0,0-7-.73A21.06,21.06,0,0,1,47.47,24.38Z"/><path class="cls-3" d="M48.2,54.95a2.44,2.44,0,1,1-2.44,2.44A2.45,2.45,0,0,1,48.2,54.95Zm0,4.47a2,2,0,0,0,2-2.11,2.08,2.08,0,0,0-2-2.11,2,2,0,0,0-2,2.11A2.14,2.14,0,0,0,48.2,59.42Zm-.89-3.5h1.06c.65,0,1,.24,1,.81a.8.8,0,0,1-.73.81l.81,1.22h-.49l-.73-1.22h-.49v1.22h-.41Zm.41,1.3h.41c.41,0,.73,0,.73-.49s-.33-.41-.65-.41h-.57v.89Z"/></g></g></svg>