<?xml version="1.0" encoding="iso-8859-1"?>
<!-- Generator: Adobe Illustrator 21.0.0, SVG Export Plug-In . SVG Version: 6.00 Build 0)  -->
<svg version="1.1" id="Capa_1" xmlns="http://www.w3.org/2000/svg" xmlns:xlink="http://www.w3.org/1999/xlink" x="0px" y="0px"
	 viewBox="0 0 512 512" style="enable-background:new 0 0 512 512;" xml:space="preserve">
<path style="fill:#ECECF1;" d="M392,15v391c0,8.399-6.599,15-15,15l-241,31c0,32.999-42.001,60-75,60S0,484.999,0,452V121L121,0h256
	C385.401,0,392,6.599,392,15z"/>
<path style="fill:#E2E2E7;" d="M392,15v391c0,8.399-6.599,15-15,15l-180,23.5V0h180C385.401,0,392,6.599,392,15z"/>
<g>
	<path style="fill:#76E2F8;" d="M332,106c0,8.401-6.599,15-15,15H167c-8.401,0-15-6.599-15-15s6.599-15,15-15h150
		C325.401,91,332,97.599,332,106z"/>
	<path style="fill:#76E2F8;" d="M347.601,166c0,8.399-6.901,15-15,15H76c-8.401,0-15-6.601-15-15c0-8.401,6.599-15,15-15h256.601
		C340.699,151,347.601,157.599,347.601,166z"/>
	<path style="fill:#76E2F8;" d="M287.601,226c0,8.399-6.901,15-15,15H76c-8.401,0-15-6.601-15-15c0-8.401,6.599-15,15-15h196.601
		C280.699,211,287.601,217.599,287.601,226z"/>
	<path style="fill:#76E2F8;" d="M241.399,286c0,8.399-6.599,15-15,15H76c-8.401,0-15-6.601-15-15c0-8.401,6.599-15,15-15h150.399
		C234.8,271,241.399,277.599,241.399,286z"/>
	<path style="fill:#76E2F8;" d="M209.9,346c0,7.8-5.4,13.799-12.9,14.7c-0.601,0.3-1.5,0.3-2.1,0.3H76c-8.401,0-15-6.601-15-15
		c0-8.401,6.599-15,15-15h118.9c0.601,0,1.5,0,2.1,0.3C204.5,332.199,209.9,338.2,209.9,346z"/>
</g>
<path style="fill:#D3D3D8;" d="M121,106V0h-15c-3.984,0-7.793,1.582-10.605,4.395l-91,91C1.582,98.207,0,102.016,0,106v15h106
	C114.284,121,121,114.284,121,106z"/>
<path style="fill:#444444;" d="M197,360.7v-29.4c7.5,0.899,12.9,6.899,12.9,14.7S204.5,359.799,197,360.7z"/>
<g>
	<path style="fill:#25D9F8;" d="M226.399,301H197v-30h29.399c8.401,0,15,6.599,15,15C241.399,294.399,234.8,301,226.399,301z"/>
	<path style="fill:#25D9F8;" d="M272.601,241H197v-30h75.601c8.099,0,15,6.599,15,15C287.601,234.399,280.699,241,272.601,241z"/>
	<path style="fill:#25D9F8;" d="M317,121H197V91h120c8.401,0,15,6.599,15,15S325.401,121,317,121z"/>
	<path style="fill:#25D9F8;" d="M332.601,181H197v-30h135.601c8.099,0,15,6.599,15,15C347.601,174.399,340.699,181,332.601,181z"/>
</g>
<path style="fill:#D3D3D8;" d="M452,406v31c0,41.4-33.6,75-75,75H61c32.999,0,60-27.001,60-60v-46c0-8.401,6.599-15,15-15h301
	C445.401,391,452,397.599,452,406z"/>
<path style="fill:#BABAC0;" d="M452,406v31c0,41.4-33.6,75-75,75H197V391h240C445.401,391,452,397.599,452,406z"/>
<path style="fill:#FFCEBF;" d="M303.8,302.8l-17.999,17.999c-1.501,1.5-3.6,2.701-5.7,3.6l-63.6,21c-5.402,1.8-11.4,0.601-15.3-3.6
	c-4.2-3.9-5.4-9.901-3.6-15.3l20.999-63.6c0.901-2.1,2.1-4.2,3.602-5.7L240.2,239.2l51.301,8.699l3.6,3.6L303.8,302.8z"/>
<path style="fill:#F89580;" d="M295.101,251.499L303.8,302.8l-17.999,17.999c-1.501,1.5-3.6,2.701-5.7,3.6l-63.6,21
	c-5.402,1.8-11.4,0.601-15.3-3.6l92.1-92.1L295.101,251.499z"/>
<path style="fill:#5A5A5A;" d="M222.201,341.8l-14.702,14.7c-5.7,6-15.298,6-20.999,0c-6-5.7-6-15.3,0-21l14.7-14.7
	c5.7-6,15.3-6,21,0C228.199,326.499,228.199,336.099,222.201,341.8z"/>
<path style="fill:#444444;" d="M222.201,320.799c5.999,5.7,5.999,15.3,0,21l-14.702,14.7c-5.7,6-15.298,6-20.999,0L222.201,320.799z
	"/>
<path style="fill:#5A5A5A;" d="M498.95,107.951l-10.8,10.499l-51-8.699l-2.1-1.8l-1.8-1.8l-8.7-51.301l10.499-10.8
	c17.701-17.401,46.201-17.401,63.9,0C516.35,61.749,516.35,90.25,498.95,107.951z"/>
<path style="fill:#444444;" d="M498.95,107.951l-10.8,10.499l-51-8.699l-2.1-1.8l63.9-63.9
	C516.35,61.749,516.35,90.25,498.95,107.951z"/>
<rect x="233.814" y="133.856" transform="matrix(0.7071 -0.7071 0.7071 0.7071 -19.7865 309.8823)" style="fill:#FF7816;" width="260.707" height="89.939"/>
<rect x="249.718" y="172.244" transform="matrix(0.7071 -0.7071 0.7071 0.7071 -26.3743 325.7863)" style="fill:#FF4B00;" width="260.707" height="44.972"/>
<g>
</g>
<g>
</g>
<g>
</g>
<g>
</g>
<g>
</g>
<g>
</g>
<g>
</g>
<g>
</g>
<g>
</g>
<g>
</g>
<g>
</g>
<g>
</g>
<g>
</g>
<g>
</g>
<g>
</g>
</svg>
